<svg width="25" height="24" viewBox="0 0 25 24" fill="none" xmlns="http://www.w3.org/2000/svg">
<path d="M8.19991 3.74993C10.4059 2.47629 11.5089 1.83947 12.7151 1.77959C12.8803 1.77139 13.0458 1.77139 13.211 1.77959C14.4172 1.83947 15.5202 2.47629 17.7262 3.74993C19.9322 5.02358 21.0352 5.6604 21.6902 6.67504C21.7799 6.814 21.8626 6.95732 21.9381 7.10448C22.4893 8.17901 22.4893 9.45265 22.4893 11.9999C22.4893 14.5472 22.4893 15.8209 21.9381 16.8954C21.8626 17.0425 21.7799 17.1859 21.6902 17.3248C21.0352 18.3395 19.9322 18.9763 17.7262 20.2499C15.5202 21.5236 14.4172 22.1604 13.211 22.2203C13.0458 22.2285 12.8803 22.2285 12.7151 22.2203C11.5089 22.1604 10.4059 21.5236 8.19991 20.2499C5.9939 18.9763 4.89089 18.3395 4.23594 17.3248C4.14624 17.1859 4.06349 17.0425 3.988 16.8954C3.43677 15.8209 3.43677 14.5472 3.43677 11.9999C3.43677 9.45265 3.43677 8.17901 3.988 7.10448C4.06349 6.95732 4.14624 6.814 4.23594 6.67504C4.89089 5.6604 5.9939 5.02358 8.19991 3.74993Z" fill="#C61323" stroke="#C61323"/>
<path d="M10.9789 11.1041C11.182 10.611 11.5736 10.2193 12.0668 10.0163L14.7437 8.91403C15.5656 8.57559 16.3875 9.39753 16.0491 10.2195L14.9468 12.8963C14.7438 13.3895 14.3521 13.7811 13.859 13.9842L11.1821 15.0864C10.3602 15.4249 9.53824 14.6029 9.87668 13.781L10.9789 11.1041Z" stroke="white" stroke-width="1.5"/>
</svg>
