<svg width="25" height="24" viewBox="0 0 25 24" fill="none" xmlns="http://www.w3.org/2000/svg">
<path d="M8.19991 3.74993C10.4059 2.47629 11.5089 1.83947 12.7151 1.77959C12.8803 1.77139 13.0458 1.77139 13.211 1.77959C14.4172 1.83947 15.5202 2.47629 17.7262 3.74993C19.9322 5.02358 21.0352 5.6604 21.6902 6.67504C21.7799 6.814 21.8626 6.95732 21.9381 7.10448C22.4893 8.17901 22.4893 9.45265 22.4893 11.9999C22.4893 14.5472 22.4893 15.8209 21.9381 16.8954C21.8626 17.0425 21.7799 17.1859 21.6902 17.3248C21.0352 18.3395 19.9322 18.9763 17.7262 20.2499C15.5202 21.5236 14.4172 22.1604 13.211 22.2203C13.0458 22.2285 12.8803 22.2285 12.7151 22.2203C11.5089 22.1604 10.4059 21.5236 8.19991 20.2499C5.9939 18.9763 4.89089 18.3395 4.23594 17.3248C4.14624 17.1859 4.06349 17.0425 3.988 16.8954C3.43677 15.8209 3.43677 14.5472 3.43677 11.9999C3.43677 9.45265 3.43677 8.17901 3.988 7.10448C4.06349 6.95732 4.14624 6.814 4.23594 6.67504C4.89089 5.6604 5.9939 5.02358 8.19991 3.74993Z" stroke="#9EA1AE" stroke-width="1.5"/>
<path d="M10.979 11.1038C11.1821 10.6107 11.5737 10.219 12.0668 10.016L14.7437 8.91374C15.5657 8.57529 16.3876 9.39723 16.0491 10.2192L14.9469 12.896C14.7438 13.3892 14.3522 13.7808 13.8591 13.9839L11.1822 15.0861C10.3602 15.4246 9.5383 14.6026 9.87675 13.7807L10.979 11.1038Z" stroke="#9EA1AE" stroke-width="1.5"/>
</svg>
