<svg width="22" height="22" viewBox="0 0 22 22" fill="none" xmlns="http://www.w3.org/2000/svg">
<path d="M4.63932 19.2913L5.08016 18.6846L4.63932 19.2913ZM3.62534 18.2773L4.2321 17.8365L3.62534 18.2773ZM18.3747 18.2773L17.7679 17.8365L18.3747 18.2773ZM17.3607 19.2913L17.8015 19.8981L17.3607 19.2913ZM17.3607 4.542L17.8015 3.93524L17.3607 4.542ZM18.3747 5.55598L17.7679 5.99682L18.3747 5.55598ZM4.63932 4.542L5.08016 5.14877L4.63932 4.542ZM3.62534 5.55598L4.2321 5.99682L3.62534 5.55598ZM17.6163 14.7231L17.499 13.9823L17.6163 14.7231ZM13.8064 18.533L13.0657 18.4157L13.8064 18.533ZM8.25 12.0833C7.83579 12.0833 7.5 12.4191 7.5 12.8333C7.5 13.2475 7.83579 13.5833 8.25 13.5833V12.0833ZM13.75 13.5833C14.1642 13.5833 14.5 13.2475 14.5 12.8333C14.5 12.4191 14.1642 12.0833 13.75 12.0833V13.5833ZM13 4.58333C13 4.99755 13.3358 5.33333 13.75 5.33333C14.1642 5.33333 14.5 4.99755 14.5 4.58333H13ZM14.5 1.83333C14.5 1.41912 14.1642 1.08333 13.75 1.08333C13.3358 1.08333 13 1.41912 13 1.83333H14.5ZM7.5 4.58333C7.5 4.99755 7.83579 5.33333 8.25 5.33333C8.66421 5.33333 9 4.99755 9 4.58333H7.5ZM9 1.83333C9 1.41912 8.66421 1.08333 8.25 1.08333C7.83579 1.08333 7.5 1.41912 7.5 1.83333H9ZM19.2235 14.6667L19.973 14.6923L19.2235 14.6667ZM2.77652 9.16667L2.02696 9.14098L2.77652 9.16667ZM19.2235 9.16667L19.973 9.14098L19.2235 9.16667ZM11 19.4167C9.26467 19.4167 8.02341 19.4156 7.06327 19.3116C6.11717 19.2091 5.5334 19.0139 5.08016 18.6846L4.19848 19.8981C4.95004 20.4441 5.82798 20.6866 6.9017 20.8029C7.96139 20.9177 9.29808 20.9167 11 20.9167V19.4167ZM2 11.9167C2 13.6186 1.99897 14.9553 2.11378 16.015C2.23011 17.0887 2.47254 17.9666 3.01858 18.7182L4.2321 17.8365C3.9028 17.3833 3.70756 16.7995 3.60505 15.8534C3.50103 14.8933 3.5 13.652 3.5 11.9167H2ZM5.08016 18.6846C4.75473 18.4481 4.46854 18.1619 4.2321 17.8365L3.01858 18.7182C3.34753 19.171 3.74571 19.5691 4.19848 19.8981L5.08016 18.6846ZM17.7679 17.8365C17.5315 18.1619 17.2453 18.4481 16.9198 18.6846L17.8015 19.8981C18.2543 19.5691 18.6525 19.171 18.9814 18.7182L17.7679 17.8365ZM16.9198 5.14877C17.2453 5.38521 17.5315 5.67139 17.7679 5.99682L18.9814 5.11514C18.6525 4.66237 18.2543 4.2642 17.8015 3.93524L16.9198 5.14877ZM4.19848 3.93524C3.74571 4.2642 3.34753 4.66237 3.01858 5.11514L4.2321 5.99682C4.46854 5.67139 4.75473 5.38521 5.08016 5.14877L4.19848 3.93524ZM17.499 13.9823C15.2169 14.3438 13.4271 16.1336 13.0657 18.4157L14.5472 18.6503C14.807 17.0101 16.0934 15.7237 17.7337 15.4639L17.499 13.9823ZM8.25 13.5833H13.75V12.0833H8.25V13.5833ZM19.2235 13.9167C18.417 13.9167 17.9243 13.915 17.499 13.9823L17.7337 15.4639C18.0135 15.4195 18.3621 15.4167 19.2235 15.4167L19.2235 13.9167ZM18.5 11.9167C18.5 12.9923 18.4999 13.8826 18.4739 14.641L19.973 14.6923C20.0001 13.9028 20 12.984 20 11.9167H18.5ZM18.4739 14.641C18.4157 16.3406 18.2257 17.2063 17.7679 17.8365L18.9814 18.7182C19.7285 17.6899 19.9142 16.4104 19.973 14.6923L18.4739 14.641ZM14.5 20.1402C14.5 19.2787 14.5029 18.9301 14.5472 18.6503L13.0657 18.4157C12.9983 18.841 13 19.3337 13 20.1401L14.5 20.1402ZM11 20.9167C12.0674 20.9167 12.9861 20.9168 13.7757 20.8897L13.7243 19.3906C12.9659 19.4166 12.0757 19.4167 11 19.4167V20.9167ZM13.7757 20.8897C15.4938 20.8308 16.7732 20.6452 17.8015 19.8981L16.9198 18.6846C16.2897 19.1424 15.4239 19.3324 13.7243 19.3906L13.7757 20.8897ZM3.5 11.9167C3.5 10.841 3.50009 9.95075 3.52608 9.19235L2.02696 9.14098C1.99991 9.93055 2 10.8493 2 11.9167H3.5ZM3.52608 9.19235C3.58431 7.49277 3.77426 6.62699 4.2321 5.99682L3.01858 5.11514C2.27149 6.14342 2.08582 7.42289 2.02696 9.14098L3.52608 9.19235ZM2.77652 9.91667H19.2235V8.41667H2.77652V9.91667ZM20 11.9167C20 10.8493 20.0001 9.93055 19.973 9.14098L18.4739 9.19235C18.4999 9.95075 18.5 10.841 18.5 11.9167H20ZM19.973 9.14098C19.9142 7.42289 19.7285 6.14342 18.9814 5.11514L17.7679 5.99682C18.2257 6.62699 18.4157 7.49277 18.4739 9.19235L19.973 9.14098ZM14.5 4.58333V3.69318H13V4.58333H14.5ZM14.5 3.69318V1.83333H13V3.69318H14.5ZM11 4.41667C12.0757 4.41667 12.9659 4.41676 13.7243 4.44274L13.7757 2.94362C12.9861 2.91657 12.0674 2.91667 11 2.91667V4.41667ZM13.7243 4.44274C15.4239 4.50097 16.2897 4.69093 16.9198 5.14877L17.8015 3.93524C16.7732 3.18815 15.4938 3.00249 13.7757 2.94362L13.7243 4.44274ZM9 4.58333V3.69318H7.5V4.58333H9ZM9 3.69318V1.83333H7.5V3.69318H9ZM11 2.91667C9.93264 2.91667 9.01388 2.91657 8.22432 2.94362L8.27568 4.44274C9.03409 4.41676 9.92433 4.41667 11 4.41667V2.91667ZM8.22432 2.94362C6.50622 3.00249 5.22676 3.18815 4.19848 3.93524L5.08016 5.14877C5.71032 4.69093 6.5761 4.50097 8.27568 4.44274L8.22432 2.94362Z" fill="#272829"/>
</svg>
