<svg width="24" height="24" viewBox="0 0 24 24" fill="none" xmlns="http://www.w3.org/2000/svg">
<path d="M21.1409 17.5292C20.3965 16.7792 18.5937 15.6847 17.719 15.2436C16.58 14.6699 16.4862 14.623 15.5909 15.2881C14.9937 15.7321 14.5967 16.1286 13.8978 15.9796C13.1989 15.8305 11.6801 14.99 10.3503 13.6644C9.02043 12.3388 8.13121 10.776 7.98168 10.0794C7.83214 9.38283 8.23527 8.99049 8.67496 8.39189C9.29464 7.54814 9.24777 7.40752 8.71808 6.26846C8.30511 5.38252 7.17871 3.59658 6.42589 2.85596C5.62058 2.06049 5.62058 2.20111 5.10167 2.41674C4.67922 2.59448 4.27394 2.81054 3.89089 3.06221C3.14089 3.56049 2.72464 3.97439 2.43355 4.59642C2.14246 5.21846 2.01167 6.67674 3.51496 9.40768C5.01824 12.1386 6.07292 13.535 8.25589 15.7119C10.4389 17.8888 12.1175 19.0592 14.5714 20.4355C17.607 22.1356 18.7714 21.8042 19.3953 21.5136C20.0192 21.223 20.435 20.8105 20.9342 20.0605C21.1865 19.6781 21.403 19.2733 21.5811 18.8511C21.7971 18.3341 21.9378 18.3341 21.1409 17.5292Z" stroke="#272829" stroke-width="1.5" stroke-miterlimit="10"/>
</svg>
