<svg width="25" height="24" viewBox="0 0 25 24" fill="none" xmlns="http://www.w3.org/2000/svg">
<path d="M20.0573 19.0711C17.7857 21.3427 12.9683 23.3067 9.05852 20.8906C8.84093 20.7561 8.73214 20.6889 8.64988 20.6563C8.4926 20.594 8.37332 20.576 8.20467 20.589C8.11645 20.5958 8.01651 20.6217 7.81662 20.6736C6.55882 20.9996 5.92993 21.1626 5.47685 21.0704C4.69048 20.9103 4.07591 20.2958 3.91587 19.5094C3.82367 19.0563 3.98667 18.4274 4.31268 17.1696C4.3645 16.9697 4.39041 16.8697 4.3972 16.7812C4.41014 16.6126 4.39175 16.4919 4.32916 16.3347C4.29633 16.2523 4.22919 16.1442 4.09492 15.9282C1.67045 12.0269 3.54678 7.29732 5.91517 4.92893C9.82041 1.02369 16.1521 1.02369 20.0573 4.92893C23.9625 8.83418 23.9625 15.1658 20.0573 19.0711Z" stroke="#9EA1AE" stroke-width="1.5"/>
<path d="M10.0156 11.8579C10.0156 12.4102 9.56791 12.8579 9.01562 12.8579C8.46334 12.8579 8.01562 12.4102 8.01562 11.8579C8.01562 11.3056 8.46334 10.8579 9.01562 10.8579C9.56791 10.8579 10.0156 11.3056 10.0156 11.8579Z" fill="#9EA1AE"/>
<path d="M14.0156 11.8579C14.0156 12.4102 13.5679 12.8579 13.0156 12.8579C12.4633 12.8579 12.0156 12.4102 12.0156 11.8579C12.0156 11.3056 12.4633 10.8579 13.0156 10.8579C13.5679 10.8579 14.0156 11.3056 14.0156 11.8579Z" fill="#9EA1AE"/>
<path d="M18.0156 11.8579C18.0156 12.4102 17.5679 12.8579 17.0156 12.8579C16.4633 12.8579 16.0156 12.4102 16.0156 11.8579C16.0156 11.3056 16.4633 10.8579 17.0156 10.8579C17.5679 10.8579 18.0156 11.3056 18.0156 11.8579Z" fill="#9EA1AE"/>
</svg>
