<svg width="19" height="18" viewBox="0 0 19 18" fill="none" xmlns="http://www.w3.org/2000/svg">
<path d="M16.4052 4.22429C16.7629 5.02464 16.9144 6.11562 17.1749 7.99116C17.5747 10.8699 17.7746 12.3093 17.3351 13.4272C16.9492 14.4086 16.2367 15.2269 15.3177 15.7442C14.2709 16.3333 12.8177 16.3333 9.91129 16.3333H8.42245C5.51607 16.3333 4.06288 16.3333 3.01607 15.7442C2.09708 15.2269 1.38456 14.4086 0.998668 13.4272C0.5591 12.3093 0.759013 10.8699 1.15884 7.99116C1.40274 6.23505 1.55112 5.16676 1.86262 4.38085M16.4052 4.22429C16.3354 4.06801 16.2577 3.92281 16.1698 3.78501C15.6956 3.04174 15.0172 2.45099 14.2157 2.08359C13.3062 1.66666 12.1746 1.66666 9.91129 1.66666H8.42245C6.15915 1.66666 5.0275 1.66666 4.11802 2.08359C3.31658 2.45099 2.63811 3.04174 2.16396 3.78501C2.04739 3.96774 1.94876 4.1635 1.86262 4.38085M16.4052 4.22429L16.3241 4.30545L15.5375 5.09206C12.4819 8.14762 10.9541 9.6754 9.05564 9.6754C7.15717 9.6754 5.62939 8.14762 2.57383 5.09206L1.86262 4.38085" stroke="#272829" stroke-width="1.5"/>
</svg>
