<svg width="25" height="24" viewBox="0 0 25 24" fill="none" xmlns="http://www.w3.org/2000/svg">
<path d="M18.7129 7.75C18.7129 9.40685 17.3697 10.75 15.7129 10.75C14.056 10.75 12.7129 9.40685 12.7129 7.75C12.7129 6.09315 14.056 4.75 15.7129 4.75C17.3697 4.75 18.7129 6.09315 18.7129 7.75Z" fill="#C61323"/>
<path d="M9.71289 16.75C9.71289 15.0931 11.056 13.75 12.7129 13.75H18.7129C20.3697 13.75 21.7129 15.0931 21.7129 16.75C21.7129 18.4069 20.3697 19.75 18.7129 19.75H12.7129C11.056 19.75 9.71289 18.4069 9.71289 16.75Z" fill="#C61323"/>
<path d="M17.9629 7.75C17.9629 8.99264 16.9555 10 15.7129 10V11.5C17.784 11.5 19.4629 9.82107 19.4629 7.75H17.9629ZM15.7129 10C14.4703 10 13.4629 8.99264 13.4629 7.75H11.9629C11.9629 9.82107 13.6418 11.5 15.7129 11.5V10ZM13.4629 7.75C13.4629 6.50736 14.4703 5.5 15.7129 5.5V4C13.6418 4 11.9629 5.67893 11.9629 7.75H13.4629ZM15.7129 5.5C16.9555 5.5 17.9629 6.50736 17.9629 7.75H19.4629C19.4629 5.67893 17.784 4 15.7129 4V5.5ZM12.7129 14.5H18.7129V13H12.7129V14.5ZM18.7129 19H12.7129V20.5H18.7129V19ZM12.7129 19C11.4703 19 10.4629 17.9926 10.4629 16.75H8.96289C8.96289 18.8211 10.6418 20.5 12.7129 20.5V19ZM20.9629 16.75C20.9629 17.9926 19.9555 19 18.7129 19V20.5C20.784 20.5 22.4629 18.8211 22.4629 16.75H20.9629ZM18.7129 14.5C19.9555 14.5 20.9629 15.5074 20.9629 16.75H22.4629C22.4629 14.6789 20.784 13 18.7129 13V14.5ZM12.7129 13C10.6418 13 8.96289 14.6789 8.96289 16.75H10.4629C10.4629 15.5074 11.4703 14.5 12.7129 14.5V13Z" fill="#C61323"/>
<path d="M11.465 10.3887C11.3073 10.1353 11.0114 10 10.7129 10C9.47025 10 8.46289 8.99264 8.46289 7.75C8.46289 6.50736 9.47025 5.5 10.7129 5.5C11.0114 5.5 11.3073 5.36473 11.465 5.11135C11.472 5.10014 11.479 5.08896 11.4861 5.07782C11.7487 4.66331 11.6156 4.0764 11.1279 4.0227C10.9916 4.0077 10.8532 4 10.7129 4C8.64182 4 6.96289 5.67893 6.96289 7.75C6.96289 9.82107 8.64182 11.5 10.7129 11.5C10.8532 11.5 10.9916 11.4923 11.1279 11.4773C11.6156 11.4236 11.7487 10.8367 11.4861 10.4222C11.479 10.411 11.472 10.3999 11.465 10.3887Z" fill="#C61323"/>
<path d="M8.42118 18.3169C8.30766 18.1275 8.10729 18 7.88648 18H7.71289C6.47025 18 5.46289 16.9926 5.46289 15.75C5.46289 14.5074 6.47025 13.5 7.71289 13.5H7.88648C8.10729 13.5 8.30766 13.3725 8.42118 13.1831C8.69828 12.7208 8.39758 12 7.85858 12H7.71289C5.64182 12 3.96289 13.6789 3.96289 15.75C3.96289 17.8211 5.64182 19.5 7.71289 19.5H7.85858C8.39758 19.5 8.69828 18.7792 8.42118 18.3169Z" fill="#C61323"/>
</svg>
