<svg width="22" height="22" viewBox="0 0 22 22" fill="none" xmlns="http://www.w3.org/2000/svg">
<path d="M8.94728 13.1696C8.4202 12.6434 8.09937 11.9284 8.09937 11.1263C8.09937 9.5194 9.3937 8.22415 10.9997 8.22415C11.7944 8.22415 12.5259 8.5459 13.0439 9.07206" stroke="#272829" stroke-width="1.5" stroke-linecap="round" stroke-linejoin="round"/>
<path d="M13.8461 11.6407C13.6334 12.8232 12.7021 13.7563 11.5205 13.9708" stroke="#272829" stroke-width="1.5" stroke-linecap="round" stroke-linejoin="round"/>
<path d="M6.10009 16.0163C4.64534 14.8741 3.41334 13.2058 2.52051 11.1259C3.42251 9.03678 4.66276 7.35928 6.12667 6.20794C7.58142 5.05661 9.25984 4.43144 10.9997 4.43144C12.7496 4.43144 14.4271 5.06578 15.891 6.22536" stroke="#272829" stroke-width="1.5" stroke-linecap="round" stroke-linejoin="round"/>
<path d="M17.827 8.24157C18.4577 9.0794 19.0123 10.0465 19.4789 11.1254C17.6758 15.3026 14.4895 17.8189 10.9997 17.8189C10.2086 17.8189 9.42854 17.6906 8.67871 17.4403" stroke="#272829" stroke-width="1.5" stroke-linecap="round" stroke-linejoin="round"/>
<path d="M18.2298 3.89547L3.77026 18.355" stroke="#272829" stroke-width="1.5" stroke-linecap="round" stroke-linejoin="round"/>
</svg>
