<svg width="25" height="24" viewBox="0 0 25 24" fill="none" xmlns="http://www.w3.org/2000/svg">
<g clip-path="url(#clip0_2248_4576)">
<path d="M3.72936 15.8197L4.44265 15.5879L3.72936 15.8197ZM2.61885 9.65157L3.34016 9.85703L2.61885 9.65157ZM7.25607 4.96556L6.81523 4.3588L7.25607 4.96556ZM2.73214 9.30291L3.43646 9.56067L2.73214 9.30291ZM6.75304 21.678L6.33474 22.3005L6.75304 21.678ZM6.45645 21.4625L5.99367 22.0527L6.45645 21.4625ZM22.1955 15.8197L21.4822 15.5879L22.1955 15.8197ZM19.4684 21.4625L19.9311 22.0527L19.4684 21.4625ZM19.1718 21.678L19.5901 22.3005L19.1718 21.678ZM18.6687 4.96556L19.1096 4.3588L18.6687 4.96556ZM23.1927 9.30291L22.4884 9.56067L23.1927 9.30291ZM23.306 9.65157L22.5847 9.85703L23.306 9.65157ZM13.1457 2.00336L13.1182 2.75286L13.1457 2.00336ZM12.7791 2.00336L12.8066 2.75286L12.7791 2.00336ZM10.9624 17.0697C10.5482 17.0697 10.2124 17.4054 10.2124 17.8197C10.2124 18.2339 10.5482 18.5697 10.9624 18.5697V17.0697ZM14.9624 18.5697C15.3766 18.5697 15.7124 18.2339 15.7124 17.8197C15.7124 17.4054 15.3766 17.0697 14.9624 17.0697V18.5697ZM4.44265 15.5879C3.9283 14.0049 3.56191 12.874 3.36965 11.9558C3.18101 11.055 3.17694 10.4301 3.34016 9.85703L1.89754 9.44611C1.64332 10.3386 1.68519 11.2303 1.9015 12.2633C2.1142 13.2791 2.51179 14.4994 3.01606 16.0514L4.44265 15.5879ZM6.81523 4.3588C5.49501 5.31799 4.45605 6.07158 3.68691 6.76835C2.90472 7.47693 2.34675 8.17368 2.02782 9.04515L3.43646 9.56067C3.64123 9.00112 4.01182 8.49798 4.69397 7.88002C5.38916 7.25026 6.35031 6.55068 7.69691 5.57232L6.81523 4.3588ZM3.34016 9.85703C3.36863 9.7571 3.40075 9.65824 3.43646 9.56067L2.02782 9.04515C1.97951 9.17717 1.93605 9.31091 1.89754 9.44611L3.34016 9.85703ZM12.9624 21.7779C11.2979 21.7779 10.1091 21.7768 9.17655 21.676C8.26145 21.577 7.6659 21.3878 7.17134 21.0555L6.33474 22.3005C7.105 22.8181 7.96595 23.0538 9.01524 23.1673C10.047 23.2789 11.3305 23.2779 12.9624 23.2779V21.7779ZM3.01606 16.0514C3.52034 17.6034 3.916 18.8244 4.34098 19.7712C4.77317 20.7341 5.2634 21.4801 5.99367 22.0527L6.91924 20.8723C6.45036 20.5046 6.08636 19.9967 5.70945 19.157C5.32533 18.3012 4.957 17.1709 4.44265 15.5879L3.01606 16.0514ZM7.17134 21.0555C7.08509 20.9975 7.001 20.9364 6.91924 20.8723L5.99367 22.0527C6.10429 22.1394 6.21806 22.2221 6.33474 22.3005L7.17134 21.0555ZM21.4822 15.5879C20.9678 17.1709 20.5995 18.3012 20.2154 19.157C19.8385 19.9967 19.4745 20.5046 19.0056 20.8723L19.9311 22.0527C20.6614 21.4801 21.1516 20.7341 21.5838 19.7712C22.0088 18.8244 22.4045 17.6034 22.9088 16.0514L21.4822 15.5879ZM12.9624 23.2779C14.5943 23.2779 15.8778 23.2789 16.9096 23.1673C17.9589 23.0538 18.8198 22.8181 19.5901 22.3005L18.7535 21.0555C18.2589 21.3878 17.6634 21.577 16.7483 21.676C15.8157 21.7768 14.6269 21.7779 12.9624 21.7779V23.2779ZM19.0056 20.8723C18.9238 20.9364 18.8397 20.9975 18.7535 21.0555L19.5901 22.3005C19.7068 22.2221 19.8205 22.1394 19.9311 22.0527L19.0056 20.8723ZM18.2279 5.57232C19.5745 6.55068 20.5357 7.25026 21.2308 7.88002C21.913 8.49798 22.2836 9.00112 22.4884 9.56067L23.897 9.04515C23.5781 8.17368 23.0201 7.47693 22.2379 6.76835C21.4688 6.07158 20.4298 5.31799 19.1096 4.3588L18.2279 5.57232ZM22.9088 16.0514C23.413 14.4994 23.8106 13.2791 24.0233 12.2633C24.2396 11.2303 24.2815 10.3386 24.0273 9.44611L22.5847 9.85703C22.7479 10.4301 22.7438 11.055 22.5552 11.9558C22.3629 12.874 21.9965 14.0049 21.4822 15.5879L22.9088 16.0514ZM22.4884 9.56067C22.5241 9.65824 22.5562 9.75709 22.5847 9.85703L24.0273 9.44611C23.9888 9.31091 23.9453 9.17717 23.897 9.04515L22.4884 9.56067ZM19.1096 4.3588C17.7894 3.3996 16.7516 2.64436 15.8513 2.12818C14.9357 1.60323 14.1006 1.28789 13.1732 1.25387L13.1182 2.75286C13.7136 2.7747 14.3067 2.97167 15.1052 3.42948C15.919 3.89603 16.8813 4.59396 18.2279 5.57232L19.1096 4.3588ZM7.69691 5.57232C9.0435 4.59396 10.0059 3.89603 10.8196 3.42948C11.6181 2.97167 12.2112 2.7747 12.8066 2.75286L12.7516 1.25387C11.8242 1.28789 10.9892 1.60323 10.0736 2.12818C9.17321 2.64436 8.13545 3.3996 6.81523 4.3588L7.69691 5.57232ZM13.1732 1.25387C13.0327 1.24871 12.8921 1.24871 12.7516 1.25387L12.8066 2.75286C12.9104 2.74905 13.0144 2.74905 13.1182 2.75286L13.1732 1.25387ZM10.9624 18.5697H14.9624V17.0697H10.9624V18.5697Z" fill="#9EA1AE"/>
</g>
<defs>
<clipPath id="clip0_2248_4576">
<rect width="24" height="24" fill="white" transform="translate(0.962891)"/>
</clipPath>
</defs>
</svg>
