<svg width="24" height="23" viewBox="0 0 24 23" fill="none" xmlns="http://www.w3.org/2000/svg">
<path d="M6.25656 3.96556C8.92337 2.028 10.2568 1.05923 11.7796 1.00336C11.9018 0.99888 12.024 0.99888 12.1462 1.00336C13.669 1.05923 15.0024 2.028 17.6692 3.96556C20.3361 5.90311 21.6695 6.87189 22.1932 8.30291C22.2352 8.41771 22.273 8.534 22.3064 8.65157C22.7239 10.1171 22.2146 11.6846 21.1959 14.8197C20.1773 17.9547 19.668 19.5222 18.4689 20.4625C18.3727 20.5379 18.2737 20.6098 18.1723 20.678C16.9074 21.5279 15.2593 21.5279 11.9629 21.5279C8.66653 21.5279 7.01835 21.5279 5.75353 20.678C5.65207 20.6098 5.55314 20.5379 5.45694 20.4625C4.2578 19.5222 3.74848 17.9547 2.72985 14.8197C1.71121 11.6846 1.2019 10.1171 1.61934 8.65157C1.65283 8.534 1.69062 8.41771 1.73263 8.30291C2.25633 6.87189 3.58974 5.90311 6.25656 3.96556Z" fill="#C61323"/>
<path d="M2.72985 14.8197L3.44314 14.5879L2.72985 14.8197ZM1.61934 8.65157L2.34065 8.85703L1.61934 8.65157ZM6.25656 3.96556L5.81572 3.3588L6.25656 3.96556ZM1.73263 8.30291L2.43694 8.56067L1.73263 8.30291ZM5.75353 20.678L5.33523 21.3005L5.75353 20.678ZM5.45694 20.4625L4.99415 21.0527L5.45694 20.4625ZM21.1959 14.8197L20.4827 14.5879L21.1959 14.8197ZM18.4689 20.4625L18.9316 21.0527L18.4689 20.4625ZM18.1723 20.678L18.5906 21.3005L18.1723 20.678ZM17.6692 3.96556L18.1101 3.3588L17.6692 3.96556ZM22.1932 8.30291L21.4888 8.56067L22.1932 8.30291ZM22.3064 8.65157L21.5851 8.85703L22.3064 8.65157ZM12.1462 1.00336L12.1187 1.75286L12.1462 1.00336ZM11.7796 1.00336L11.8071 1.75286L11.7796 1.00336ZM3.44314 14.5879C2.92878 13.0049 2.56239 11.874 2.37014 10.9558C2.1815 10.055 2.17743 9.43007 2.34065 8.85703L0.898032 8.44611C0.643812 9.33861 0.685675 10.2303 0.901985 11.2633C1.11469 12.2791 1.51227 13.4994 2.01655 15.0514L3.44314 14.5879ZM5.81572 3.3588C4.4955 4.31799 3.45654 5.07158 2.68739 5.76835C1.90521 6.47693 1.34724 7.17368 1.02831 8.04515L2.43694 8.56067C2.64172 8.00112 3.01231 7.49798 3.69446 6.88002C4.38965 6.25026 5.3508 5.55068 6.6974 4.57232L5.81572 3.3588ZM2.34065 8.85703C2.36912 8.7571 2.40123 8.65824 2.43694 8.56067L1.02831 8.04515C0.979998 8.17717 0.936543 8.31091 0.898032 8.44611L2.34065 8.85703ZM11.9629 20.7779C10.2984 20.7779 9.10962 20.7768 8.17703 20.676C7.26194 20.577 6.66638 20.3878 6.17183 20.0555L5.33523 21.3005C6.10549 21.8181 6.96644 22.0538 8.01573 22.1673C9.04753 22.2789 10.331 22.2779 11.9629 22.2779V20.7779ZM2.01655 15.0514C2.52083 16.6034 2.91648 17.8244 3.34147 18.7712C3.77366 19.7341 4.26389 20.4801 4.99415 21.0527L5.91973 19.8723C5.45085 19.5046 5.08685 18.9967 4.70993 18.157C4.32581 17.3012 3.95749 16.1709 3.44314 14.5879L2.01655 15.0514ZM6.17183 20.0555C6.08558 19.9975 6.00149 19.9364 5.91973 19.8723L4.99415 21.0527C5.10478 21.1394 5.21855 21.2221 5.33523 21.3005L6.17183 20.0555ZM20.4827 14.5879C19.9683 16.1709 19.6 17.3012 19.2159 18.157C18.8389 18.9967 18.4749 19.5046 18.0061 19.8723L18.9316 21.0527C19.6619 20.4801 20.1521 19.7341 20.5843 18.7712C21.0093 17.8244 21.405 16.6034 21.9092 15.0514L20.4827 14.5879ZM11.9629 22.2779C13.5948 22.2779 14.8783 22.2789 15.9101 22.1673C16.9594 22.0538 17.8203 21.8181 18.5906 21.3005L17.754 20.0555C17.2594 20.3878 16.6639 20.577 15.7488 20.676C14.8162 20.7768 13.6274 20.7779 11.9629 20.7779V22.2779ZM18.0061 19.8723C17.9243 19.9364 17.8402 19.9975 17.754 20.0555L18.5906 21.3005C18.7072 21.2221 18.821 21.1394 18.9316 21.0527L18.0061 19.8723ZM17.2284 4.57232C18.575 5.55068 19.5361 6.25026 20.2313 6.88002C20.9135 7.49798 21.2841 8.00112 21.4888 8.56067L22.8975 8.04515C22.5786 7.17368 22.0206 6.47693 21.2384 5.76835C20.4693 5.07158 19.4303 4.31799 18.1101 3.3588L17.2284 4.57232ZM21.9092 15.0514C22.4135 13.4994 22.8111 12.2791 23.0238 11.2633C23.2401 10.2303 23.282 9.33861 23.0278 8.44611L21.5851 8.85703C21.7484 9.43007 21.7443 10.055 21.5556 10.9558C21.3634 11.874 20.997 13.0049 20.4827 14.5879L21.9092 15.0514ZM21.4888 8.56067C21.5246 8.65824 21.5567 8.75709 21.5851 8.85703L23.0278 8.44611C22.9893 8.31091 22.9458 8.17717 22.8975 8.04515L21.4888 8.56067ZM18.1101 3.3588C16.7899 2.3996 15.7521 1.64436 14.8517 1.12818C13.9361 0.603234 13.1011 0.287886 12.1737 0.253865L12.1187 1.75286C12.7141 1.7747 13.3072 1.97167 14.1057 2.42948C14.9195 2.89603 15.8818 3.59396 17.2284 4.57232L18.1101 3.3588ZM6.6974 4.57232C8.04399 3.59396 9.00634 2.89603 9.82011 2.42948C10.6186 1.97167 11.2117 1.7747 11.8071 1.75286L11.7521 0.253865C10.8247 0.287886 9.98965 0.603234 9.07404 1.12818C8.1737 1.64436 7.13594 2.3996 5.81572 3.3588L6.6974 4.57232ZM12.1737 0.253865C12.0332 0.248712 11.8926 0.248712 11.7521 0.253865L11.8071 1.75286C11.9109 1.74905 12.0149 1.74905 12.1187 1.75286L12.1737 0.253865Z" fill="#C61323"/>
</svg>
