<svg width="25" height="24" viewBox="0 0 25 24" fill="none" xmlns="http://www.w3.org/2000/svg">
<path d="M19.4424 9.26111C18.8617 7.71935 18.015 6.29145 16.9407 5.04236C15.0816 2.89033 12.6371 1.50049 10.7129 1.50049C10.5985 1.50057 10.4856 1.52684 10.3829 1.57726C10.2802 1.62769 10.1904 1.70095 10.1204 1.79143C10.0503 1.88191 10.0019 1.98721 9.97885 2.09928C9.95578 2.21135 9.95866 2.32721 9.98727 2.43799C10.6374 4.92236 9.28977 6.98814 7.86336 9.17486C6.68164 10.9861 5.46289 12.8569 5.46289 15.0005C5.46289 19.1358 8.82758 22.5005 12.9629 22.5005C17.0982 22.5005 20.4629 19.1358 20.4629 15.0005C20.4629 12.9708 20.1198 11.04 19.4424 9.26111ZM14.4784 19.6266C13.9941 20.1422 13.3871 20.2505 12.9629 20.2505C12.5387 20.2505 11.9316 20.1422 11.4474 19.6266C10.9632 19.111 10.7129 18.293 10.7129 17.2505C10.7129 16.0721 11.1263 15.1749 11.5257 14.3077C11.7577 13.8042 11.9945 13.2919 12.1351 12.7435C12.15 12.6838 12.1794 12.6287 12.2206 12.5831C12.2618 12.5375 12.3137 12.5027 12.3715 12.4818C12.4293 12.4609 12.4914 12.4546 12.5523 12.4633C12.6132 12.4721 12.6709 12.4957 12.7205 12.5321C13.1493 12.8638 13.5305 13.2527 13.8535 13.688C14.7052 14.813 15.2129 16.1452 15.2129 17.2505C15.2129 18.293 14.9588 19.1147 14.4784 19.6266Z" fill="#C61323"/>
</svg>
