<svg width="25" height="24" viewBox="0 0 25 24" fill="none" xmlns="http://www.w3.org/2000/svg">
<path d="M6.21289 15.0033C6.21289 10.6439 12.0254 7.26892 10.7129 2.2533C13.8066 2.2533 19.7129 6.7533 19.7129 15.0033C19.7129 16.7935 19.0017 18.5104 17.7359 19.7763C16.47 21.0421 14.7531 21.7533 12.9629 21.7533C11.1727 21.7533 9.45579 21.0421 8.18992 19.7763C6.92405 18.5104 6.21289 16.7935 6.21289 15.0033V15.0033Z" stroke="#9EA1AE" stroke-width="1.5" stroke-linecap="round" stroke-linejoin="round"/>
<path d="M15.9629 17.2496C15.9629 19.9548 14.4629 20.9996 12.9629 20.9996C11.4629 20.9996 9.96289 19.9548 9.96289 17.2496C9.96289 14.5445 11.8379 13.2184 11.4629 11.2496C13.4316 11.2496 15.9629 14.5445 15.9629 17.2496Z" stroke="#9EA1AE" stroke-width="1.5" stroke-linecap="round" stroke-linejoin="round"/>
</svg>
