<svg width="14" height="17" viewBox="0 0 14 17" fill="none" xmlns="http://www.w3.org/2000/svg">
<path d="M3.987 0.566004L3.27 0.782004C2.63158 0.974532 2.06144 1.34543 1.62669 1.85104C1.19194 2.35665 0.910678 2.97594 0.816001 3.636C0.519001 5.704 1.183 8.122 2.784 10.895C4.381 13.661 6.139 15.443 8.074 16.223C8.69573 16.4736 9.37633 16.5403 10.0349 16.4154C10.6935 16.2904 11.3023 15.9789 11.789 15.518L12.331 15.004C12.6829 14.6709 12.902 14.2214 12.9474 13.7389C12.9929 13.2565 12.8616 12.7739 12.578 12.381L11.222 10.501C11.0387 10.2472 10.7805 10.0571 10.4837 9.95741C10.1869 9.8577 9.86638 9.85336 9.567 9.945L7.516 10.572L7.463 10.582C7.237 10.615 6.715 10.126 6.065 9C5.385 7.822 5.245 7.133 5.432 6.955L6.475 5.982C6.85603 5.62621 7.1163 5.1602 7.2194 4.64919C7.3225 4.13817 7.26327 3.6077 7.05 3.132L6.388 1.661C6.18894 1.21835 5.8357 0.863182 5.39413 0.661716C4.95256 0.46025 4.4518 0.426232 3.987 0.566004ZM5.478 2.071L6.138 3.542C6.26608 3.82732 6.30178 4.14554 6.2401 4.45214C6.17842 4.75875 6.02245 5.03841 5.794 5.252L4.748 6.226C4.078 6.86 4.3 7.942 5.2 9.5C6.046 10.966 6.818 11.69 7.648 11.564L7.772 11.538L9.86 10.901C9.95981 10.8703 10.0667 10.8717 10.1657 10.9049C10.2647 10.9381 10.3508 11.0014 10.412 11.086L11.768 12.966C11.91 13.1625 11.9758 13.4038 11.9532 13.6451C11.9305 13.8865 11.821 14.1114 11.645 14.278L11.102 14.792C10.7543 15.121 10.3195 15.3433 9.84925 15.4325C9.37896 15.5217 8.89296 15.4739 8.449 15.295C6.751 14.611 5.146 12.984 3.651 10.395C2.152 7.8 1.545 5.593 1.806 3.778C1.87356 3.30643 2.07445 2.86398 2.38502 2.50275C2.69559 2.14151 3.1029 1.87653 3.559 1.739L4.276 1.523C4.50846 1.45315 4.75839 1.47023 4.97918 1.57106C5.19997 1.67189 5.37656 1.84958 5.476 2.071" fill="#272829"/>
<path d="M5.478 2.071L6.138 3.542C6.26608 3.82732 6.30178 4.14554 6.2401 4.45214C6.17842 4.75875 6.02245 5.03841 5.794 5.252L4.748 6.226C4.078 6.86 4.3 7.942 5.2 9.5C6.046 10.966 6.818 11.69 7.648 11.564L7.772 11.538L9.86 10.901C9.95981 10.8703 10.0667 10.8717 10.1657 10.9049C10.2647 10.9381 10.3508 11.0014 10.412 11.086L11.768 12.966C11.91 13.1625 11.9758 13.4038 11.9532 13.6451C11.9305 13.8865 11.821 14.1114 11.645 14.278L11.102 14.792C10.7543 15.121 10.3195 15.3433 9.84925 15.4325C9.37896 15.5217 8.89296 15.4739 8.449 15.295C6.751 14.611 5.146 12.984 3.651 10.395C2.152 7.8 1.545 5.593 1.806 3.778C1.87356 3.30643 2.07445 2.86398 2.38502 2.50275C2.69559 2.14151 3.1029 1.87653 3.559 1.739L4.276 1.523C4.50846 1.45315 4.75839 1.47023 4.97918 1.57106C5.19997 1.67189 5.37656 1.84958 5.476 2.071M3.987 0.566004L3.27 0.782004C2.63158 0.974532 2.06144 1.34543 1.62669 1.85104C1.19194 2.35665 0.910678 2.97594 0.816001 3.636C0.519001 5.704 1.183 8.122 2.784 10.895C4.381 13.661 6.139 15.443 8.074 16.223C8.69573 16.4736 9.37633 16.5403 10.0349 16.4154C10.6935 16.2904 11.3023 15.9789 11.789 15.518L12.331 15.004C12.6829 14.6709 12.902 14.2214 12.9474 13.7389C12.9929 13.2565 12.8616 12.7739 12.578 12.381L11.222 10.501C11.0387 10.2472 10.7805 10.0571 10.4837 9.95741C10.1869 9.8577 9.86638 9.85336 9.567 9.945L7.516 10.572L7.463 10.582C7.237 10.615 6.715 10.126 6.065 9C5.385 7.822 5.245 7.133 5.432 6.955L6.475 5.982C6.85603 5.62621 7.1163 5.16021 7.2194 4.64919C7.3225 4.13817 7.26327 3.6077 7.05 3.132L6.388 1.661C6.18894 1.21835 5.8357 0.863182 5.39413 0.661716C4.95256 0.46025 4.4518 0.426232 3.987 0.566004Z" stroke="#272829" stroke-width="0.5"/>
</svg>
