<svg width="16" height="16" viewBox="0 0 16 16" fill="none" xmlns="http://www.w3.org/2000/svg">
<path d="M2.08337 8.49996C2.08337 8.08575 1.74759 7.74996 1.33337 7.74996C0.91916 7.74996 0.583374 8.08575 0.583374 8.49996H2.08337ZM3.99939 3.16663L4.4499 3.76625V3.76625L3.99939 3.16663ZM2.66671 4.49931L3.22154 5.00395L3.2452 4.97793L3.26633 4.94982L2.66671 4.49931ZM2.92516 1.16997C2.92701 0.755763 2.59273 0.418481 2.17852 0.416633C1.76431 0.414785 1.42703 0.74907 1.42518 1.16328L2.92516 1.16997ZM2.16926 2.49043L1.41927 2.48709L2.16926 2.49043ZM4.6226 4.94377L4.62594 5.69376H4.62594L4.6226 4.94377ZM5.94975 5.68785C6.36396 5.68601 6.69825 5.34872 6.6964 4.93452C6.69455 4.52031 6.35727 4.18602 5.94306 4.18787L5.94975 5.68785ZM2.44163 4.43507L1.8485 4.89409L1.8485 4.89409L2.44163 4.43507ZM2.67796 4.6714L2.21894 5.26453L2.21894 5.26453L2.67796 4.6714ZM0.583374 8.49996C0.583374 12.5961 3.90393 15.9166 8.00004 15.9166V14.4166C4.73236 14.4166 2.08337 11.7676 2.08337 8.49996H0.583374ZM8.00004 15.9166C12.0962 15.9166 15.4167 12.5961 15.4167 8.49996H13.9167C13.9167 11.7676 11.2677 14.4166 8.00004 14.4166V15.9166ZM15.4167 8.49996C15.4167 4.40385 12.0962 1.08329 8.00004 1.08329V2.58329C11.2677 2.58329 13.9167 5.23227 13.9167 8.49996H15.4167ZM8.00004 1.08329C6.33093 1.08329 4.78864 1.63555 3.54888 2.56701L4.4499 3.76625C5.43879 3.02327 6.66695 2.58329 8.00004 2.58329V1.08329ZM3.54889 2.56701C2.98784 2.98853 2.48861 3.48776 2.06709 4.0488L3.26633 4.94982C3.60298 4.50173 4.00181 4.1029 4.4499 3.76625L3.54889 2.56701ZM1.42518 1.16328L1.41927 2.48709L2.91926 2.49378L2.92516 1.16997L1.42518 1.16328ZM4.62594 5.69376L5.94975 5.68785L5.94306 4.18787L4.61925 4.19378L4.62594 5.69376ZM1.41927 2.48709C1.417 2.99731 1.41387 3.44335 1.45333 3.80466C1.49443 4.18106 1.58939 4.55928 1.8485 4.89409L3.03476 3.97605C3.01444 3.9498 2.97086 3.88355 2.94446 3.64182C2.91642 3.38501 2.91682 3.03927 2.91926 2.49378L1.41927 2.48709ZM4.61925 4.19378C4.07376 4.19621 3.72802 4.19662 3.47121 4.16857C3.22949 4.14217 3.16324 4.09859 3.13698 4.07827L2.21894 5.26453C2.55376 5.52364 2.93197 5.6186 3.30837 5.65971C3.66968 5.69916 4.11573 5.69604 4.62594 5.69376L4.61925 4.19378ZM1.8485 4.89409C1.91604 4.98136 1.99037 5.06301 2.07077 5.1383L3.09609 4.04344C3.07391 4.02267 3.0534 4.00014 3.03476 3.97605L1.8485 4.89409ZM2.07077 5.1383C2.11811 5.18264 2.16755 5.22476 2.21894 5.26453L3.13698 4.07828C3.12279 4.0673 3.10915 4.05567 3.09609 4.04344L2.07077 5.1383ZM2.11188 3.99467L2.0286 4.08623L3.13826 5.09551L3.22154 5.00395L2.11188 3.99467Z" fill="#C61323"/>
</svg>
