<svg width="25" height="24" viewBox="0 0 25 24" fill="none" xmlns="http://www.w3.org/2000/svg">
<path d="M10.3323 3.33216C11.1057 0.622352 14.946 0.622352 15.7193 3.33216C16.1342 4.78578 17.6276 5.64801 19.0939 5.28046C21.8273 4.59529 23.7475 7.92112 21.7874 9.94576C20.7359 11.0318 20.7359 12.7563 21.7874 13.8424C23.7475 15.867 21.8273 19.1928 19.0939 18.5077C17.6276 18.1401 16.1342 19.0023 15.7193 20.456C14.946 23.1658 11.1057 23.1658 10.3323 20.456C9.91747 19.0023 8.42405 18.1401 6.95776 18.5077C4.22432 19.1928 2.30415 15.867 4.26425 13.8424C5.3157 12.7563 5.3157 11.0318 4.26425 9.94576C2.30416 7.92112 4.22432 4.59529 6.95776 5.28046C8.42405 5.64801 9.91747 4.78578 10.3323 3.33216Z" fill="#C61323"/>
<path d="M6.95776 5.28046L6.7754 6.00796L6.95776 5.28046ZM10.3323 3.33216L9.61111 3.12634L10.3323 3.33216ZM4.26425 9.94576L4.8031 9.42409L4.26425 9.94576ZM4.26425 13.8424L3.7254 13.3207H3.7254L4.26425 13.8424ZM6.95776 18.5077L7.14011 19.2352L6.95776 18.5077ZM10.3323 20.456L9.61111 20.6618L10.3323 20.456ZM15.7193 20.456L16.4405 20.6618L15.7193 20.456ZM19.0939 18.5077L19.2762 17.7802L19.0939 18.5077ZM21.7874 13.8424L21.2485 14.364V14.364L21.7874 13.8424ZM21.7874 9.94576L21.2485 9.42409V9.42409L21.7874 9.94576ZM19.0939 5.28046L18.9115 4.55297L19.0939 5.28046ZM15.7193 3.33216L16.4405 3.12634L15.7193 3.33216ZM6.7754 6.00796C8.63431 6.47392 10.5276 5.38082 11.0535 3.53799L9.61111 3.12634C9.30734 4.19075 8.2138 4.8221 7.14011 4.55297L6.7754 6.00796ZM4.8031 9.42409C3.36783 7.94156 4.77386 5.50625 6.7754 6.00796L7.14011 4.55297C3.67478 3.68434 1.24048 7.90068 3.7254 10.4674L4.8031 9.42409ZM4.8031 14.364C6.13608 12.9872 6.13608 10.801 4.8031 9.42409L3.7254 10.4674C4.49532 11.2627 4.49532 12.5254 3.7254 13.3207L4.8031 14.364ZM6.7754 17.7802C4.77386 18.2819 3.36783 15.8466 4.8031 14.364L3.7254 13.3207C1.24048 15.8874 3.67478 20.1038 7.14011 19.2352L6.7754 17.7802ZM11.0535 20.2501C10.5276 18.4073 8.63431 17.3142 6.7754 17.7802L7.14011 19.2352C8.2138 18.966 9.30734 19.5974 9.61111 20.6618L11.0535 20.2501ZM14.9981 20.2501C14.4319 22.2344 11.6198 22.2344 11.0535 20.2501L9.61111 20.6618C10.5915 24.0972 15.4601 24.0972 16.4405 20.6618L14.9981 20.2501ZM19.2762 17.7802C17.4173 17.3142 15.524 18.4073 14.9981 20.2501L16.4405 20.6618C16.7443 19.5974 17.8379 18.966 18.9115 19.2352L19.2762 17.7802ZM21.2485 14.364C22.6838 15.8466 21.2778 18.2819 19.2762 17.7802L18.9115 19.2352C22.3769 20.1038 24.8112 15.8874 22.3263 13.3207L21.2485 14.364ZM21.2485 9.42409C19.9156 10.801 19.9156 12.9872 21.2485 14.364L22.3263 13.3207C21.5563 12.5254 21.5563 11.2627 22.3263 10.4674L21.2485 9.42409ZM19.2762 6.00796C21.2778 5.50625 22.6838 7.94156 21.2485 9.42409L22.3263 10.4674C24.8112 7.90068 22.3769 3.68434 18.9115 4.55297L19.2762 6.00796ZM14.9981 3.53799C15.524 5.38082 17.4173 6.47392 19.2762 6.00796L18.9115 4.55297C17.8379 4.8221 16.7443 4.19075 16.4405 3.12634L14.9981 3.53799ZM16.4405 3.12634C15.4601 -0.30904 10.5915 -0.30904 9.61111 3.12634L11.0535 3.53799C11.6198 1.55374 14.4319 1.55374 14.9981 3.53799L16.4405 3.12634Z" fill="#C61323"/>
<path d="M9.03711 11.7808C9.03711 13.8518 10.716 15.5308 12.7871 15.5308V14.0308C11.5445 14.0308 10.5371 13.0234 10.5371 11.7808H9.03711ZM12.7871 15.5308C14.8582 15.5308 16.5371 13.8518 16.5371 11.7808H15.0371C15.0371 13.0234 14.0298 14.0308 12.7871 14.0308V15.5308ZM16.5371 11.7808C16.5371 9.70969 14.8582 8.03076 12.7871 8.03076V9.53076C14.0297 9.53076 15.0371 10.5381 15.0371 11.7808H16.5371ZM12.7871 8.03076C10.716 8.03076 9.03711 9.70969 9.03711 11.7808H10.5371C10.5371 10.5381 11.5445 9.53076 12.7871 9.53076V8.03076Z" fill="#EAEDF3"/>
</svg>
