<svg width="25" height="24" viewBox="0 0 25 24" fill="none" xmlns="http://www.w3.org/2000/svg">
<path d="M6.89477 5.38642L6.74888 5.96842L6.89477 5.38642ZM10.2693 3.43812L9.69236 3.27346L10.2693 3.43812ZM4.20126 10.0517L4.63234 9.63438L4.20126 10.0517ZM4.20126 13.9483L3.77018 13.531H3.77018L4.20126 13.9483ZM6.89477 18.6136L7.04065 19.1956L6.89477 18.6136ZM10.2693 20.5619L9.69236 20.7266L10.2693 20.5619ZM15.6563 20.5619L16.2333 20.7266L15.6563 20.5619ZM19.0309 18.6136L19.1768 18.0316L19.0309 18.6136ZM21.7244 13.9483L21.2933 14.3657L21.7244 13.9483ZM21.7244 10.0517L21.2933 9.63438L21.7244 10.0517ZM19.0309 5.38642L18.885 4.80443L19.0309 5.38642ZM15.6563 3.43812L16.2333 3.27346L15.6563 3.43812ZM6.74888 5.96842C8.52927 6.41469 10.3426 5.36777 10.8463 3.60278L9.69236 3.27346C9.36638 4.41571 8.19286 5.09324 7.04065 4.80443L6.74888 5.96842ZM4.63234 9.63438C3.09211 8.04343 4.60097 5.43001 6.74888 5.96842L7.04065 4.80443C3.7217 3.97249 1.39022 8.01072 3.77018 10.4691L4.63234 9.63438ZM4.63234 14.3657C5.90902 13.0469 5.90902 10.9531 4.63234 9.63438L3.77018 10.4691C4.5964 11.3225 4.5964 12.6775 3.77018 13.531L4.63234 14.3657ZM6.74888 18.0316C4.60096 18.57 3.09211 15.9566 4.63234 14.3657L3.77018 13.531C1.39022 15.9893 3.7217 20.0275 7.04065 19.1956L6.74888 18.0316ZM10.8463 20.3973C10.3426 18.6323 8.52927 17.5853 6.74888 18.0316L7.04065 19.1956C8.19286 18.9068 9.36638 19.5843 9.69236 20.7266L10.8463 20.3973ZM15.0794 20.3973C14.4717 22.5266 11.454 22.5266 10.8463 20.3973L9.69236 20.7266C10.6314 24.0168 15.2943 24.0168 16.2333 20.7266L15.0794 20.3973ZM19.1768 18.0316C17.3964 17.5853 15.5831 18.6323 15.0794 20.3973L16.2333 20.7266C16.5593 19.5843 17.7328 18.9068 18.885 19.1956L19.1768 18.0316ZM21.2933 14.3657C22.8336 15.9566 21.3247 18.57 19.1768 18.0316L18.885 19.1956C22.204 20.0275 24.5354 15.9893 22.1555 13.531L21.2933 14.3657ZM21.2933 9.63438C20.0167 10.9531 20.0167 13.0469 21.2933 14.3657L22.1555 13.531C21.3293 12.6775 21.3293 11.3225 22.1555 10.4691L21.2933 9.63438ZM19.1768 5.96842C21.3247 5.43001 22.8336 8.04343 21.2933 9.63438L22.1555 10.4691C24.5354 8.01072 22.204 3.97249 18.885 4.80443L19.1768 5.96842ZM15.0794 3.60278C15.5831 5.36777 17.3964 6.41469 19.1768 5.96842L18.885 4.80443C17.7328 5.09324 16.5593 4.41571 16.2333 3.27346L15.0794 3.60278ZM16.2333 3.27346C15.2943 -0.0168056 10.6314 -0.0168046 9.69236 3.27346L10.8463 3.60278C11.454 1.47342 14.4717 1.47342 15.0794 3.60278L16.2333 3.27346ZM9.36284 12C9.36284 13.9882 10.9746 15.6 12.9628 15.6V14.4C11.6374 14.4 10.5628 13.3255 10.5628 12H9.36284ZM12.9628 15.6C14.9511 15.6 16.5628 13.9882 16.5628 12H15.3628C15.3628 13.3255 14.2883 14.4 12.9628 14.4V15.6ZM16.5628 12C16.5628 10.0118 14.9511 8.40001 12.9628 8.40001V9.60001C14.2883 9.60001 15.3628 10.6745 15.3628 12H16.5628ZM12.9628 8.40001C10.9746 8.40001 9.36284 10.0118 9.36284 12H10.5628C10.5628 10.6745 11.6374 9.60001 12.9628 9.60001V8.40001Z" fill="#9CA4B4"/>
</svg>
