<svg width="22" height="22" viewBox="0 0 22 22" fill="none" xmlns="http://www.w3.org/2000/svg">
<path d="M11 16.4982C14.0376 16.4982 16.5 14.0357 16.5 10.9982C16.5 7.96059 14.0376 5.49816 11 5.49816C7.96243 5.49816 5.5 7.96059 5.5 10.9982C5.5 14.0357 7.96243 16.4982 11 16.4982Z" stroke="#37424D" stroke-width="1.5" stroke-linecap="round" stroke-linejoin="round"/>
<path d="M19.9375 19.9357L14.8951 14.8812M19.25 15.1232L15.125 19.2482L19.25 15.1232ZM7.5625 3.43566L3.43836 7.5598L7.5625 3.43566ZM19.9375 5.49816V2.06066H16.5L19.9375 5.49816ZM2.0625 5.49816V2.06066H5.5L2.0625 5.49816ZM19.9375 2.06066L14.8887 7.10949L19.9375 2.06066ZM2.0625 2.06066L7.1109 7.10906L2.0625 2.06066Z" stroke="#37424D" stroke-width="1.5" stroke-linecap="round" stroke-linejoin="round"/>
</svg>
